<svg version="1.2" xmlns="http://www.w3.org/2000/svg" viewBox="0 0 500 500" width="500" height="500">
	<title>Nouveau projet</title>
	<style>
		.s0 { fill: #ffffff } 
	</style>
	<path id="R" class="s0" aria-label="R"  d="m266.1 87.8q0 15.1-6 26.7-5.8 11.4-15.6 20.3-9.7 8.8-22.2 15.6-12.4 6.6-25.6 11.8-7.8 3.2-12.6 5.2-4.8 1.7-7.6 2.9-2.6 1-3.7 1.6-0.9 0.6-0.9 1.5 0 0.3 0.3 1.4 7.5 22.7 17.5 46.3 4.2 10.1 9.3 21.4 5.2 11.1 11.2 22.8 6 11.6 12.7 23.3 6.9 11.8 14.5 22.7l-19.9 5.2q-16.3-26-31.8-59.6-15.4-33.9-28.7-72.8-0.6-1.7-1-3.3-0.5-1.7-0.5-3.3 0-4.3 2.1-6.2 2.2-2 6.9-3.8 4.8-1.8 12.4-4.2 7.6-2.7 18.6-8 10.7-5.2 20-11.7 9.3-6.6 16.2-14.9 7-8.5 11-19.1 4-10.5 4-23.5 0-9.7-2.5-16.2-2.4-6.6-6.3-10.5-4-4-9-5.6-4.9-1.7-10.2-1.7-5.7 0-13.2 2.8-7.5 2.7-15.7 9.9-8.2 7-16.7 19.2-8.5 12.2-16.2 30.8l-59.5 142.2h-18.9l59.5-142.2q6.7-16.1 15.9-28.7 9.3-12.8 20.1-21.4 11-8.8 23.1-13.4 12.2-4.7 24.5-4.7 7.8 0 15.7 2.5 7.9 2.5 14.3 7.7 6.5 5.1 10.4 12.8 4.1 7.7 4.1 18.2z"/>
	<path id="H" class="s0" aria-label="H"  d="m240.6 423h-18.2l27.3-63.7q-8.4-0.5-14.1-2.5-5.6-2.2-9.1-5.3-3.4-3.2-4.8-7-1.5-3.8-1.5-7.8 0-7.4 3.4-12.1 3.4-4.7 8-7.5 4.9-2.8 10.1-3.8 5.3-1 9.1-1 9.6 0 17.8 2.6l15.8-36.8q3.2-7.7 6.6-15.5 3.3-7.9 6-14.9 2.6-7.2 4.2-13.2 1.8-6 1.8-10.1 0-2.7-1.2-4.3-1-1.7-3.2-1.7-10.4 1.6-23.9 9.9-5.7 3.5-12.7 9-6.9 5.4-15.1 13.3-8.1 7.8-17.3 18.3-9.1 10.4-19.2 24.2l-3.1-19.8q14.2-14.7 28-25.8 13.9-11.3 26.2-18.9 12.5-7.7 22.6-11.7 10.2-4 17.1-4 8.2 0 11.7 5 3.6 4.9 3.6 12.5 0 5-1.2 10.8-1.2 5.7-3.1 12-1.8 6.2-4.2 12.6-2.4 6.3-5 12.3l-19.2 44.6q6 4.2 10.7 10.2 4.8 5.9 8.6 13.3h36.8l53.6-127.8h18.5l-53.7 127.8h15.1l-5.8 13.1h-14.7l-26.6 63.7h-18.6l0.1-0.3q0.3-4.8 0.5-9.2 0.1-4.6 0.1-8.8 0-13.8-1.6-24.9-1.5-11.3-4.4-20.5h-34.4zm-11.7-90q0 2.4 1 4.7 1.1 2.4 3.5 4.3 2.3 1.9 5.9 3 3.6 1.2 8.7 1.2h7.2l11.2-25.9q-7.7-2.4-16.7-2.4-9.7 0-15.3 4.3-5.5 4.2-5.5 10.8zm85.5 68.4q0 1.5 0 2.8 0 1.3-0.1 2.8l20-47.7h-25.9q6 18.7 6 42.1zm-40.7-55.2h23.1q-6.1-11.7-15.2-18.3z"/>
</svg>